<?xml version="1.0" encoding="utf-8"?>
<!-- Generator: Adobe Illustrator 19.0.0, SVG Export Plug-In . SVG Version: 6.00 Build 0)  -->
<svg version="1.1" id="Livello_1" xmlns="http://www.w3.org/2000/svg" xmlns:xlink="http://www.w3.org/1999/xlink" x="0px" y="0px"
	 viewBox="4699.8 173.5 81 81" style="enable-background:new 4699.8 173.5 81 81;" xml:space="preserve">
<style type="text/css">
	.st0{fill:#CC2229;}
	.st1{fill:#CBCBCB;}
	.st2{fill:#DFDFDF;}
	.st3{fill:#D7D7D7;}
	.st4{fill:#EDEDED;}
	.st5{fill:#E1E1E1;}
	.st6{fill:#CACACA;}
	.st7{fill:#D0D0D0;}
	.st8{fill:#DEDEDE;}
	.st9{fill:#D2D2D2;}
	.st10{fill:#C8C8C8;}
	.st11{fill:#E6E6E6;}
	.st12{fill:#E2E2E2;}
	.st13{fill:#C9C9C9;}
	.st14{fill:url(#SVGID_1_);}
	.st15{fill:#C5C5C5;}
	.st16{fill:#CCCCCC;}
	.st17{fill:url(#SVGID_2_);}
	.st18{fill:url(#SVGID_3_);}
	.st19{fill:url(#SVGID_4_);}
</style>
<path class="st0" d="M2544.9,1319.7c0,25.4-20.6,45.9-45.9,45.9s-45.9-20.6-45.9-45.9c0-25.4,20.6-45.9,45.9-45.9c0,0,0,0,0,0
	c0.4,0,0.8,0,1.2,0c0.4,0,0.8,0,1.2,0.1c0.8,0,1.6,0.1,2.3,0.2c0.4,0,0.8,0.1,1.2,0.1c0.4,0.1,0.8,0.1,1.1,0.2
	c0.4,0.1,0.8,0.1,1.1,0.2c0.4,0.1,0.8,0.1,1.1,0.2c0.4,0.1,0.8,0.2,1.1,0.2l1.1,0.3c0.4,0.1,0.7,0.2,1.1,0.3l1.1,0.3
	c0.3,0.1,0.7,0.2,1.1,0.3c0.3,0.1,0.7,0.2,1.1,0.4c0.4,0.1,0.7,0.3,1.1,0.4c0.3,0.1,0.7,0.3,1,0.4c0.3,0.1,0.7,0.3,1,0.5
	c0.7,0.3,1.3,0.6,2,1c0.3,0.2,0.7,0.3,1,0.5c0.3,0.2,0.7,0.3,1,0.5c0.3,0.2,0.6,0.4,1,0.6l0.9,0.6c0.3,0.2,0.6,0.4,0.9,0.6
	c0.3,0.2,0.6,0.4,0.9,0.6c0.3,0.2,0.6,0.4,0.9,0.7l0.9,0.7c0.3,0.2,0.6,0.5,0.9,0.7c0.3,0.2,0.6,0.5,0.8,0.7
	c0.3,0.2,0.5,0.5,0.8,0.7c0.3,0.2,0.5,0.5,0.8,0.8c0.3,0.3,0.5,0.5,0.8,0.8c0.3,0.3,0.5,0.5,0.8,0.8l0.8,0.8
	c0.2,0.3,0.5,0.5,0.7,0.8c0.2,0.3,0.5,0.6,0.7,0.8c0.2,0.3,0.5,0.6,0.7,0.9l0.7,0.9c0.2,0.3,0.4,0.6,0.7,0.9
	c0.2,0.3,0.4,0.6,0.6,0.9c0.2,0.3,0.4,0.6,0.6,0.9l0.6,0.9l0.6,1c0.2,0.3,0.4,0.6,0.5,1l0.5,1c0.2,0.3,0.3,0.7,0.5,1l0.5,1l0.4,1
	l0.4,1l0.4,1c0.1,0.3,0.3,0.7,0.4,1.1c0.1,0.3,0.2,0.7,0.3,1.1l0.3,1.1c0.1,0.4,0.2,0.7,0.3,1.1c0.1,0.4,0.2,0.7,0.3,1.1
	c0.1,0.4,0.2,0.7,0.2,1.1c0.1,0.4,0.2,0.8,0.2,1.1c0.1,0.4,0.1,0.8,0.2,1.1c0.1,0.4,0.1,0.8,0.2,1.1c0.1,0.4,0.1,0.8,0.1,1.2
	c0,0.4,0.1,0.8,0.1,1.2l0.1,1.2c0,0.4,0,0.8,0,1.2C2544.9,1318.9,2544.9,1319.3,2544.9,1319.7L2544.9,1319.7z"/>
<path d="M1478.5,1574.2v-117.8h-117.4c-6.8,0-12.6,2.4-17.5,7.3c-4.8,4.9-7.3,10.7-7.3,17.5v92.4c0,6.9,2.4,12.8,7.3,17.7
	c4.9,4.8,10.7,7.3,17.5,7.3h117.4V1574.2L1478.5,1574.2z M760.1,1669.9h71.3v-188.6c0-6.8,2.4-12.7,7.3-17.5
	c4.9-4.9,10.7-7.3,17.5-7.3h83v-71.3H849c-24.3,0-45.1,8.8-62.6,26.3c-17.5,17.5-26.3,38.3-26.3,62.6V1669.9z M2852,1669.9h-71.3
	v-188.6c0-6.8-2.4-12.7-7.3-17.5c-4.9-4.9-10.7-7.3-17.5-7.3h-117.4v213.4h-71.3v-284.7h195.9c24.3,0,45.2,8.8,62.6,26.3
	c17.5,17.4,26.3,38.3,26.3,62.6V1669.9L2852,1669.9z M2533.1,1669.9h-71.3v-284.7h71.3V1669.9z M2427.9,1580.8
	c0,24.5-8.8,45.5-26.3,63c-17.4,17.4-38.3,26-62.6,26h-106.8c-24.2,0-45.2-8.7-63-26c-17.4-17.9-26-38.9-26-63V1474
	c0-24.3,8.7-45.2,26-62.6c17.6-17.5,38.6-26.3,63-26.3H2339c24.3,0,45.2,8.8,62.6,26.3c17.5,17.4,26.3,38.3,26.3,62.6V1580.8z
	 M2356.6,1573.6v-92.4c0-6.8-2.4-12.6-7.3-17.5c-4.9-4.8-10.7-7.3-17.5-7.3h-92.4c-6.9,0-12.8,2.4-17.7,7.3
	c-4.8,4.9-7.3,10.7-7.3,17.5v92.4c0,6.9,2.4,12.8,7.3,17.7c4.9,4.8,10.8,7.3,17.7,7.3h92.4c6.8,0,12.6-2.4,17.5-7.3
	C2354.2,1586.4,2356.6,1580.5,2356.6,1573.6z M2123.4,1669.9h-160.1c-24.2,0-45.3-8.7-63.1-26c-17.4-17.9-26.1-38.9-26.1-63V1474
	c0-24.3,8.7-45.2,26.1-62.6c17.6-17.5,38.6-26.3,63.1-26.3h142.2v71.3h-135c-7,0-12.9,2.4-17.7,7.3c-4.9,4.9-7.3,10.7-7.3,17.5v92.4
	c0,6.9,2.4,12.8,7.3,17.7c4.8,4.8,10.7,7.3,17.7,7.3h153L2123.4,1669.9L2123.4,1669.9z M1569.6,1580.8c0,24.5,8.8,45.5,26.3,63
	c17.4,17.4,38.3,26,62.6,26h195.9v-380.4H1783v95.7h-124.6c-24.3,0-45.2,8.8-62.6,26.3c-17.5,17.4-26.3,38.3-26.3,62.6
	L1569.6,1580.8L1569.6,1580.8z M1640.9,1573.6v-92.4c0-6.8,2.4-12.6,7.3-17.5c4.9-4.8,10.7-7.3,17.5-7.3H1783v142.2h-117.4
	c-6.8,0-12.6-2.4-17.5-7.3C1643.3,1586.4,1640.9,1580.5,1640.9,1573.6L1640.9,1573.6z M1244.9,1470.4c0,22.4-8,42.3-24.1,59.7
	c-15.9,17.2-35.1,25.8-57.4,25.8h-131.5v21.2c0,5.7,2.1,10.7,6.5,15c4.3,4.3,9.3,6.5,15,6.5h174.2v71.3h-177.8
	c-24.2,0-45.2-8.7-63.1-26c-17.4-17.9-26.1-38.9-26.1-63V1474c0-24.3,8.7-45.2,26-62.6c17.5-17.5,38.5-26.3,62.9-26.3h113.7
	c22.4,0,41.6,8.6,57.5,25.8C1236.8,1428.4,1244.9,1448.2,1244.9,1470.4L1244.9,1470.4z M1173.6,1477.6c0-6.2-1.9-11.3-5.7-15.3
	c-3.8-3.9-8.9-5.9-15.1-5.9h-99.5c-5.7,0-10.7,2.1-14.9,6.5c-4.3,4.1-6.5,9-6.5,14.7v21.5h120.9c6.2,0,11.2-2,15.1-6.1
	C1171.6,1489.1,1173.6,1483.9,1173.6,1477.6z M1478.5,1385.2v-95.7h71.3v380.4h-195.9c-24.3,0-45.2-8.7-62.6-26
	c-17.5-17.6-26.3-38.6-26.3-63V1474c0-24.3,8.8-45.2,26.3-62.6c17.4-17.5,38.3-26.3,62.6-26.3L1478.5,1385.2z"/>
<g>
	<path class="st1" d="M2445.3,830c-352.3,348.1-919.9,344.7-1268-7.5c-348.1-352.2-344.7-919.9,7.6-1268
		c428.4-423.3,1119.1-304.7,1405.4,186.8c88.1,151.2,129.5,324.7,120.1,499.3c-3.5,64.7-13.9,128.8-31.2,191.2
		c-19.4,70.3-47.4,138-83.3,201.5C2555.1,705.6,2504.4,771.6,2445.3,830L2445.3,830z"/>
	<path class="st1" d="M2445.3,830c-263.8,260.7-648.4,324.2-971.1,191.8L2679.9-45.1c0.7,2.7,1.5,5.4,2.2,8.1
		c20.2,76.6,30.1,155.4,29.6,234.6c-0.1,21.5-1,43-2.7,64.5v0c-1.1,14.3-2.6,28.6-4.4,42.8l0,0c-0.9,7.1-1.9,14.2-2.9,21.3l0,0
		c-3.2,21.3-7.2,42.6-11.9,63.6c-1.6,7-3.2,14-5,21c-1.8,7-3.6,14-5.5,20.9c-1.9,7-3.9,13.9-6,20.8h0c-2.1,6.9-4.3,13.8-6.5,20.7
		l0,0c-4.5,13.8-9.4,27.4-14.6,41h0c-2.6,6.8-5.3,13.5-8.1,20.3l0,0c-8.3,20.3-17.4,40.2-27.3,59.8c-9.9,19.7-20.5,39.1-31.9,58.1
		l0,0c-3.8,6.4-7.7,12.7-11.7,18.9c-4,6.3-8,12.5-12.2,18.7c-4.1,6.2-8.4,12.3-12.7,18.4l0,0c-4.3,6.1-8.7,12.2-13.2,18.2v0
		c-4.5,6-9.1,12-13.7,17.9c-4.7,5.9-9.4,11.8-14.2,17.7c-4.8,5.8-9.7,11.6-14.7,17.4l0,0c-5,5.8-10.1,11.5-15.2,17.1
		c-5.2,5.7-10.4,11.2-15.7,16.8C2456.2,819.1,2450.8,824.6,2445.3,830L2445.3,830z"/>
	<path class="st2" d="M2445.3,830c-103.2,102-225,173.8-354.3,215.5L1916.4-698.6c478.5,54.1,819,471.6,794,939.2
		c-3.5,64.7-13.9,128.8-31.2,191.2c-19.4,70.3-47.4,138-83.3,201.5C2555.1,705.7,2504.4,771.6,2445.3,830L2445.3,830z"/>
	<path class="st3" d="M2445.3,830c-263.8,260.7-648.4,324.2-971.1,191.8L2679.9-45.1c29.2,106.8,38.4,218.4,27.2,328.6
		c-7.3,71.8-23.2,142.4-47.4,210.4C2614.2,621.2,2541.4,735,2445.3,830L2445.3,830z"/>
	<path class="st4" d="M2445.3,830c-103.2,102-225,173.8-354.3,215.5l-52.4-523.2l641.3-567.4c29.2,106.8,38.4,218.4,27.2,328.6
		c-12.5,123-50.2,242.1-111.1,349.8C2555.1,705.7,2504.4,771.6,2445.3,830z"/>
	<path class="st3" d="M1711.7,1082.9c-195.7-22.6-385.2-109.4-534.4-260.4C878.7,520.3,838.8,59.6,1055.8-285L1711.7,1082.9z"/>
	<path class="st5" d="M1711.7,1082.9c-81.6-9.4-161.5-30-237.5-61.1l146.2-129.3L1711.7,1082.9z"/>
	<path class="st6" d="M1339.1,952.3c-58.8-36.9-113.1-80.5-161.8-129.9c-348.1-352.2-344.7-919.9,7.6-1268
		c269.5-266.3,665-326.8,991.9-182.9L1339.1,952.3z"/>
	<path class="st7" d="M923.9,93.8c21.7-197.4,108.7-388.9,261-539.3c269.5-266.3,665-326.8,991.9-182.9l-209.9,396.1L923.9,93.8
		L923.9,93.8z"/>
	<path class="st8" d="M1916.4-698.6c89.8,10.1,177.6,33.8,260.3,70.2l-213,402.1L1916.4-698.6L1916.4-698.6z"/>
	<path class="st9" d="M1339.1,952.3c-58.8-36.9-113.1-80.5-161.8-129.9C878.7,520.3,838.8,59.6,1055.8-285l446,930.2L1339.1,952.3
		L1339.1,952.3z"/>
	<path class="st10" d="M923.9,93.8c14.6-132.4,58.5-262.2,131.9-378.8L1196.5,8.5L923.9,93.8z"/>
	<g>
		<path class="st11" d="M2512.8,30.4c-4.5,3.3-10.1,4.4-15.5,3c-5.4-1.2-10-4.7-12.6-9.5c-104.8-190.7-258.2-352-442.5-466.9
			l32.4-73.2c207.8,117.4,396.4,275,505.9,485.9C2585.3-20.9,2520.1,25.2,2512.8,30.4L2512.8,30.4z"/>
		<path class="st12" d="M2069.3-425.7c-18.6-11.6-64.7-40.1-83.9-50.8c-9-5-12.5-16.1-8.1-25.3l23-48c4.9-1.6,10.3-1.2,14.8,1.3
			c20,10.4,39.8,21.1,59.4,32.2l8.9,63.9L2069.3-425.7L2069.3-425.7z"/>
		<path class="st7" d="M2039.2-589.7c230.8,120.2,421.5,310.4,541.4,541.3c4.5,8.6,1.9,19.2-6,24.8l-58.1,41c-4.7,3.3-10,4.3-15.5,3
			c-5.6-1.3-9.9-4.5-12.6-9.5c-115.4-210-289.7-384.2-499.2-500.3c-9-5-12.5-16.1-8.1-25.3l31.8-66.1c2.2-4.8,6.3-8.4,11.3-10
			C2029.1-592.6,2034.6-592.2,2039.2-589.7L2039.2-589.7z"/>
		<path class="st13" d="M2039.2-589.7c55.8,29.1,109.5,62.3,160.4,99.4L2011.1-477c-7.3-4.2-14.6-8.4-22-12.5
			c-9-5-12.5-16.1-8.1-25.3l31.8-66.1c2.2-4.8,6.3-8.4,11.3-10C2029.1-592.6,2034.5-592.2,2039.2-589.7z"/>
		
			<linearGradient id="SVGID_1_" gradientUnits="userSpaceOnUse" x1="1647.2408" y1="327.2842" x2="1672.6788" y2="298.0202" gradientTransform="matrix(5.203 0 0 5.203 -6387.6982 -1876.4025)">
			<stop  offset="0" style="stop-color:#B6B6B6"/>
			<stop  offset="1" style="stop-color:#111111"/>
		</linearGradient>
		<path class="st14" d="M2562.1-14.9l-45.7,32.2c-4.7,3.3-10,4.3-15.5,3c-5.6-1.3-9.9-4.5-12.6-9.5
			c-115.4-210-289.7-384.2-499.2-500.3c-9-5-12.5-16.1-8.1-25.3l23.1-48c4.9-1.6,10.3-1.2,14.8,1.3
			c230.8,120.2,421.5,310.4,541.4,541.3C2561.1-18.4,2561.8-16.7,2562.1-14.9z"/>
		<path class="st15" d="M2805.4-551.4c82.1,243.9-107,490.9-359.5,481.6c-31.8-46.2-66.7-90.2-104.5-131.7
			c-72.4-84.7-155.5-159.7-247.3-222.9C2077.4-855.3,2675.7-936.8,2805.4-551.4z"/>
		<path class="st16" d="M2778.5-546.1c79.1,234.9-96.5,474.5-335.1,481.6c-97.2-150.8-225.9-280-376.2-378
			c8.6-366.1,489.7-480.8,676.1-178.8C2757.8-597.6,2769.6-572.4,2778.5-546.1L2778.5-546.1z"/>
		
			<radialGradient id="SVGID_2_" cx="1736.2609" cy="270.9322" r="52.671" gradientTransform="matrix(5.203 0 0 5.203 -6387.6982 -1876.4025)" gradientUnits="userSpaceOnUse">
			<stop  offset="0" style="stop-color:#FFFFFF"/>
			<stop  offset="0.146" style="stop-color:#F3F3F3"/>
			<stop  offset="0.291" style="stop-color:#E9E9E9"/>
			<stop  offset="0.437" style="stop-color:#E1E1E1"/>
			<stop  offset="0.581" style="stop-color:#DADADA"/>
			<stop  offset="0.724" style="stop-color:#D5D5D5"/>
			<stop  offset="0.865" style="stop-color:#D2D2D2"/>
			<stop  offset="1" style="stop-color:#D1D1D1"/>
		</radialGradient>
		<path class="st17" d="M2778.5-546.1c64.4,191.2-38.4,398.3-229.6,462.7c-27.6,9.3-56.1,15.3-85.1,17.8c24.5-3,48.5-8.5,71.9-16.4
			c191.2-64.4,294-271.5,229.6-462.7c-12.7-37.8-31.5-73.2-55.6-104.9c-72.7-95.3-187.9-149.2-307.9-143.5
			c-4.6,0.2-9.2,0.5-13.8,0.9c6-0.7,12-1.3,18.1-1.8c119-9,237.1,42.9,311.4,135.9c1.9,2.3,3.7,4.7,5.5,7.1
			C2747-619.3,2765.8-583.8,2778.5-546.1z"/>
		<path class="st10" d="M2465.5-65.8l-1.7,0.1L2465.5-65.8L2465.5-65.8z M2131.5-397.6c-0.6-6-1-12.1-1.5-18.1
			c6,2.9,11.9,5.9,17.8,9c0.6,7.9,1.3,15.5,2,22.9C2143.8-388.4,2137.7-393,2131.5-397.6z"/>
		<path class="st10" d="M2067.2-442.4c0.2-7,0.5-13.9,1-20.7c184.1,80.1,332.1,221.2,417.6,394.9c-14,2.1-28.2,3.4-42.4,3.8
			C2346.2-215.3,2217.5-344.4,2067.2-442.4L2067.2-442.4z"/>
	</g>
</g>
<g>
	<path class="st1" d="M4763.7,241.9c-14.4,14.2-37.5,14.1-51.7-0.3c-14.2-14.4-14.1-37.5,0.3-51.7c17.5-17.3,45.6-12.4,57.3,7.6
		c3.6,6.2,5.3,13.2,4.9,20.4c-0.1,2.6-0.6,5.3-1.3,7.8c-0.8,2.9-1.9,5.6-3.4,8.2C4768.2,236.8,4766.1,239.5,4763.7,241.9
		L4763.7,241.9z"/>
	<path class="st1" d="M4763.7,241.9c-10.8,10.6-26.4,13.2-39.6,7.8l49.2-43.5c0,0.1,0.1,0.2,0.1,0.3c0.8,3.1,1.2,6.3,1.2,9.6
		c0,0.9,0,1.8-0.1,2.6v0c0,0.6-0.1,1.2-0.2,1.7l0,0c0,0.3-0.1,0.6-0.1,0.9v0c-0.1,0.9-0.3,1.7-0.5,2.6c-0.1,0.3-0.1,0.6-0.2,0.9
		c-0.1,0.3-0.1,0.6-0.2,0.9c-0.1,0.3-0.2,0.6-0.2,0.8l0,0c-0.1,0.3-0.2,0.6-0.3,0.8l0,0c-0.2,0.6-0.4,1.1-0.6,1.7h0
		c-0.1,0.3-0.2,0.6-0.3,0.8v0c-0.3,0.8-0.7,1.6-1.1,2.4c-0.4,0.8-0.8,1.6-1.3,2.4v0c-0.2,0.3-0.3,0.5-0.5,0.8
		c-0.2,0.3-0.3,0.5-0.5,0.8c-0.2,0.3-0.3,0.5-0.5,0.8l0,0c-0.2,0.2-0.4,0.5-0.5,0.7v0c-0.2,0.2-0.4,0.5-0.6,0.7
		c-0.2,0.2-0.4,0.5-0.6,0.7c-0.2,0.2-0.4,0.5-0.6,0.7v0c-0.2,0.2-0.4,0.5-0.6,0.7c-0.2,0.2-0.4,0.5-0.6,0.7
		C4764.1,241.5,4763.9,241.7,4763.7,241.9L4763.7,241.9z"/>
	<path class="st2" d="M4763.7,241.9c-4.2,4.2-9.2,7.1-14.4,8.8l-7.1-71.1c19.5,2.2,33.4,19.2,32.4,38.3c-0.1,2.6-0.6,5.3-1.3,7.8
		c-0.8,2.9-1.9,5.6-3.4,8.2C4768.2,236.8,4766.1,239.5,4763.7,241.9L4763.7,241.9z"/>
	<path class="st3" d="M4763.7,241.9c-10.8,10.6-26.4,13.2-39.6,7.8l49.2-43.5c1.2,4.4,1.6,8.9,1.1,13.4c-0.3,2.9-0.9,5.8-1.9,8.6
		C4770.6,233.4,4767.6,238,4763.7,241.9L4763.7,241.9z"/>
	<path class="st4" d="M4763.7,241.9c-4.2,4.2-9.2,7.1-14.4,8.8l-2.1-21.3l26.2-23.1c1.2,4.4,1.6,8.9,1.1,13.4c-0.5,5-2,9.9-4.5,14.3
		C4768.2,236.8,4766.1,239.5,4763.7,241.9z"/>
	<path class="st3" d="M4733.8,252.2c-8-0.9-15.7-4.5-21.8-10.6c-12.2-12.3-13.8-31.1-5-45.2L4733.8,252.2z"/>
	<path class="st5" d="M4733.8,252.2c-3.3-0.4-6.6-1.2-9.7-2.5l6-5.3L4733.8,252.2z"/>
	<path class="st6" d="M4718.6,246.9c-2.4-1.5-4.6-3.3-6.6-5.3c-14.2-14.4-14.1-37.5,0.3-51.7c11-10.9,27.1-13.3,40.5-7.5
		L4718.6,246.9z"/>
	<path class="st7" d="M4701.6,211.9c0.9-8.1,4.4-15.9,10.6-22c11-10.9,27.1-13.3,40.5-7.5l-8.6,16.2L4701.6,211.9L4701.6,211.9z"/>
	<path class="st8" d="M4742.1,179.6c3.7,0.4,7.2,1.4,10.6,2.9l-8.7,16.4L4742.1,179.6L4742.1,179.6z"/>
	<path class="st9" d="M4718.6,246.9c-2.4-1.5-4.6-3.3-6.6-5.3c-12.2-12.3-13.8-31.1-5-45.2l18.2,37.9L4718.6,246.9L4718.6,246.9z"/>
	<path class="st10" d="M4701.6,211.9c0.6-5.4,2.4-10.7,5.4-15.4l5.7,12L4701.6,211.9z"/>
	<g>
		<path class="st11" d="M4766.4,209.3c-0.2,0.1-0.4,0.2-0.6,0.1c-0.2,0-0.4-0.2-0.5-0.4c-4.3-7.8-10.5-14.4-18-19l1.3-3
			c8.5,4.8,16.2,11.2,20.6,19.8C4769.4,207.2,4766.7,209.1,4766.4,209.3L4766.4,209.3z"/>
		<path class="st12" d="M4748.3,190.7c-0.8-0.5-2.6-1.6-3.4-2.1c-0.4-0.2-0.5-0.7-0.3-1l0.9-2c0.2-0.1,0.4,0,0.6,0.1
			c0.8,0.4,1.6,0.9,2.4,1.3l0.4,2.6L4748.3,190.7L4748.3,190.7z"/>
		<path class="st7" d="M4747.1,184c9.4,4.9,17.2,12.7,22.1,22.1c0.2,0.4,0.1,0.8-0.2,1l-2.4,1.7c-0.2,0.1-0.4,0.2-0.6,0.1
			s-0.4-0.2-0.5-0.4c-4.7-8.6-11.8-15.7-20.4-20.4c-0.4-0.2-0.5-0.7-0.3-1l1.3-2.7c0.1-0.2,0.3-0.3,0.5-0.4
			C4746.7,183.9,4746.9,183.9,4747.1,184L4747.1,184z"/>
		<path class="st13" d="M4747.1,184c2.3,1.2,4.5,2.5,6.5,4.1l-7.7,0.5c-0.3-0.2-0.6-0.3-0.9-0.5c-0.4-0.2-0.5-0.7-0.3-1l1.3-2.7
			c0.1-0.2,0.3-0.3,0.5-0.4C4746.7,183.9,4746.9,183.9,4747.1,184z"/>
		
			<linearGradient id="SVGID_3_" gradientUnits="userSpaceOnUse" x1="2141.2026" y1="399.264" x2="2142.2402" y2="398.0704" gradientTransform="matrix(5.203 0 0 5.203 -6387.6982 -1876.4025)">
			<stop  offset="0" style="stop-color:#B6B6B6"/>
			<stop  offset="1" style="stop-color:#111111"/>
		</linearGradient>
		<path class="st18" d="M4768.4,207.4l-1.9,1.3c-0.2,0.1-0.4,0.2-0.6,0.1s-0.4-0.2-0.5-0.4c-4.7-8.6-11.8-15.7-20.4-20.4
			c-0.4-0.2-0.5-0.7-0.3-1l0.9-2c0.2-0.1,0.4,0,0.6,0.1c9.4,4.9,17.2,12.7,22.1,22.1C4768.4,207.3,4768.4,207.4,4768.4,207.4z"/>
		<path class="st15" d="M4778.4,185.6c3.3,9.9-4.4,20-14.7,19.6c-1.3-1.9-2.7-3.7-4.3-5.4c-3-3.5-6.3-6.5-10.1-9.1
			C4748.7,173.2,4773.1,169.8,4778.4,185.6z"/>
		<path class="st16" d="M4777.3,185.8c3.2,9.6-3.9,19.4-13.7,19.6c-4-6.2-9.2-11.4-15.3-15.4c0.4-14.9,20-19.6,27.6-7.3
			C4776.4,183.7,4776.9,184.7,4777.3,185.8L4777.3,185.8z"/>
		
			<radialGradient id="SVGID_4_" cx="2145.0088" cy="396.8272" r="2.2102" gradientTransform="matrix(5.0571 0 0 5.0571 -6075.5991 -1817.7755)" gradientUnits="userSpaceOnUse">
			<stop  offset="0" style="stop-color:#FFFFFF"/>
			<stop  offset="0.146" style="stop-color:#F3F3F3"/>
			<stop  offset="0.291" style="stop-color:#E9E9E9"/>
			<stop  offset="0.437" style="stop-color:#E1E1E1"/>
			<stop  offset="0.581" style="stop-color:#DADADA"/>
			<stop  offset="0.724" style="stop-color:#D5D5D5"/>
			<stop  offset="0.865" style="stop-color:#D2D2D2"/>
			<stop  offset="1" style="stop-color:#D1D1D1"/>
		</radialGradient>
		<path class="st19" d="M4777.3,185.8c2.6,7.8-1.6,16.2-9.4,18.9c-1.1,0.4-2.3,0.6-3.5,0.7c1-0.1,2-0.3,2.9-0.7
			c7.8-2.6,12-11.1,9.4-18.9c-0.5-1.5-1.3-3-2.3-4.3c-3-3.9-7.7-6.1-12.6-5.9c-0.2,0-0.4,0-0.6,0c0.2,0,0.5-0.1,0.7-0.1
			c4.9-0.4,9.7,1.7,12.7,5.5c0.1,0.1,0.2,0.2,0.2,0.3C4776,182.8,4776.8,184.2,4777.3,185.8z"/>
		<path class="st10" d="M4764.5,205.4L4764.5,205.4L4764.5,205.4L4764.5,205.4z M4750.9,191.8c0-0.2,0-0.5-0.1-0.7
			c0.2,0.1,0.5,0.2,0.7,0.4c0,0.3,0.1,0.6,0.1,0.9C4751.4,192.2,4751.1,192,4750.9,191.8z"/>
		<path class="st10" d="M4748.3,190c0-0.3,0-0.6,0-0.8c7.5,3.3,13.5,9,17,16.1c-0.6,0.1-1.2,0.1-1.7,0.2
			C4759.6,199.3,4754.4,194,4748.3,190L4748.3,190z"/>
	</g>
</g>
</svg>
